<svg width="20" height="22" viewBox="0 0 20 22" fill="none" xmlns="http://www.w3.org/2000/svg">
<path d="M10.398 16.804L10.6283 17.2478L10.6283 17.2478L10.398 16.804ZM9.60196 16.804L9.37175 17.2478L9.37175 17.2478L9.60196 16.804ZM16.5 8C16.5 10.327 15.3141 12.2164 13.9 13.6426C12.4865 15.0684 10.8868 15.9872 10.1678 16.3601L10.6283 17.2478C11.3922 16.8516 13.0935 15.8765 14.6102 14.3467C16.1264 12.8173 17.5 10.6894 17.5 8H16.5ZM10 1.5C13.5899 1.5 16.5 4.41015 16.5 8H17.5C17.5 3.85786 14.1421 0.5 10 0.5V1.5ZM3.5 8C3.5 4.41015 6.41015 1.5 10 1.5V0.5C5.85786 0.5 2.5 3.85786 2.5 8H3.5ZM9.83218 16.3601C9.11315 15.9872 7.51351 15.0684 6.09996 13.6426C4.68593 12.2164 3.5 10.327 3.5 8H2.5C2.5 10.6894 3.87358 12.8173 5.38981 14.3467C6.9065 15.8765 8.60784 16.8516 9.37175 17.2478L9.83218 16.3601ZM10.1678 16.3601C10.0593 16.4164 9.9407 16.4164 9.83218 16.3601L9.37175 17.2478C9.76896 17.4538 10.231 17.4538 10.6283 17.2478L10.1678 16.3601ZM12.5 8C12.5 9.38071 11.3807 10.5 10 10.5V11.5C11.933 11.5 13.5 9.933 13.5 8H12.5ZM10 5.5C11.3807 5.5 12.5 6.61929 12.5 8H13.5C13.5 6.067 11.933 4.5 10 4.5V5.5ZM7.5 8C7.5 6.61929 8.61929 5.5 10 5.5V4.5C8.067 4.5 6.5 6.067 6.5 8H7.5ZM10 10.5C8.61929 10.5 7.5 9.38071 7.5 8H6.5C6.5 9.933 8.067 11.5 10 11.5V10.5Z" fill="white"/>
<path d="M17.7942 16.5C18.5841 16.9561 19 17.4734 19 18C19 18.5266 18.5841 19.0439 17.7942 19.5C17.0043 19.9561 15.8682 20.3348 14.5 20.5981C13.1318 20.8614 11.5798 21 10 21C8.42017 21 6.86817 20.8614 5.5 20.5981C4.13183 20.3348 2.99569 19.9561 2.20577 19.5C1.41586 19.0439 1 18.5266 1 18C1 17.4734 1.41586 16.9561 2.20577 16.5" stroke="white" stroke-linecap="round"/>
</svg>
