<svg width="86" height="77" viewBox="0 0 86 77" fill="none" xmlns="http://www.w3.org/2000/svg">
<path d="M32.4412 39.5417H37.1985L34.4636 43.7041L37.6613 43.7669L30.9496 52.0001L32.5759 45.7229H29.5988L32.4412 39.5417Z" fill="url(#paint0_linear_11_1032)"/>
<path d="M39.7922 43.9226H41.8808L40.6801 45.7502L42.0841 45.7777L39.1373 49.3925L39.8513 46.6365H38.5444L39.7922 43.9226Z" fill="url(#paint1_linear_11_1032)"/>
<path d="M25.3259 45.7709H27.4145L26.2138 47.5984L27.6178 47.6259L24.671 51.2407L25.385 48.4848H24.0781L25.3259 45.7709Z" fill="url(#paint2_linear_11_1032)"/>
<path d="M26.2086 40.4833C30.0103 40.4833 33.0923 37.2729 33.0923 33.3126C33.0923 29.3522 30.0103 26.1418 26.2086 26.1418C22.4068 26.1418 19.3248 29.3522 19.3248 33.3126C19.3248 37.2729 22.4068 40.4833 26.2086 40.4833Z" fill="#FA9E42"/>
<g filter="url(#filter0_f_11_1032)">
<path d="M25.7111 32.2928C27.999 31.0333 29.2786 28.8903 28.5693 27.5062C27.86 26.122 25.4303 26.021 23.1425 27.2804C20.8546 28.5398 19.575 30.6829 20.2843 32.067C20.9937 33.4511 23.4233 33.5522 25.7111 32.2928Z" fill="#F8E36F"/>
</g>
<g filter="url(#filter1_d_11_1032)">
<path d="M39.7103 44.9018H26.3319C25.0341 44.9008 23.787 44.3795 22.8517 43.447C21.9163 42.5145 21.3653 41.2432 21.3139 39.8992C21.2625 38.5551 21.7147 37.2426 22.5759 36.2363C23.4371 35.23 24.6405 34.608 25.9342 34.5006C26.1186 33.1504 26.7069 31.8942 27.6161 30.9087C28.5254 29.9231 29.7099 29.2578 31.003 29.0063C32.2961 28.7549 33.6327 28.9299 34.8248 29.5069C36.0169 30.0838 37.0045 31.0336 37.6487 32.2226C38.8301 31.7987 40.1066 31.7492 41.3153 32.0803C42.524 32.4115 43.6101 33.1082 44.4351 34.0818C45.2602 35.0554 45.7867 36.2616 45.9475 37.5466C46.1084 38.8316 45.8963 40.1371 45.3383 41.2966C45.0109 42.3443 44.3716 43.2574 43.5123 43.9051C42.653 44.5528 41.6179 44.9017 40.5554 44.9018H39.7103Z" fill="url(#paint3_linear_11_1032)"/>
<path d="M40.5552 44.8292C41.0947 44.8292 41.6251 44.74 42.1318 44.5639C42.6217 44.3936 43.0816 44.1451 43.4989 43.8254C43.9113 43.5093 44.2728 43.1306 44.5734 42.6999C44.8777 42.2639 45.1126 41.7842 45.2717 41.2743L45.2733 41.269L45.2757 41.2641C45.4873 40.826 45.6502 40.3626 45.7599 39.8867C45.8728 39.3971 45.93 38.8911 45.93 38.3828C45.93 37.9454 45.8875 37.5082 45.8037 37.0835C45.722 36.6697 45.6 36.2626 45.4413 35.8736C45.2854 35.4916 45.0925 35.1232 44.8678 34.7786C44.6453 34.4372 44.3898 34.1162 44.1083 33.8245C43.8268 33.5327 43.5171 33.2679 43.1877 33.0373C42.8552 32.8044 42.4998 32.6045 42.1312 32.4429C41.7559 32.2784 41.3631 32.152 40.9638 32.0673C40.554 31.9804 40.1323 31.9363 39.7102 31.9363C39.0114 31.9363 38.3254 32.0555 37.6714 32.2906L37.6162 32.3105L37.5876 32.2577C37.0554 31.2768 36.2812 30.4531 35.3488 29.8755C34.8772 29.5834 34.3706 29.3577 33.843 29.2046C33.2987 29.0467 32.7333 28.9667 32.1626 28.9667C31.3949 28.9667 30.6455 29.1099 29.9353 29.3923C29.2491 29.6651 28.6197 30.0592 28.0645 30.5636C27.5124 31.0652 27.0543 31.6569 26.7028 32.3225C26.3427 33.0044 26.1073 33.7405 26.0033 34.5102L25.9955 34.5679L25.9395 34.5724C25.3134 34.6232 24.7111 34.794 24.1492 35.0802C23.6032 35.3582 23.1157 35.7342 22.7002 36.1979C21.8463 37.1505 21.376 38.3918 21.376 39.6929C21.376 40.3863 21.5071 41.059 21.7655 41.6922C21.8897 41.9965 22.0434 42.29 22.2224 42.5646C22.3997 42.8366 22.6033 43.0924 22.8276 43.3248C23.0518 43.5573 23.2986 43.7683 23.561 43.9521C23.826 44.1376 24.1092 44.2969 24.4028 44.4256C25.0138 44.6934 25.6628 44.8292 26.3318 44.8292H39.7102H40.5552ZM40.5552 44.9017H39.7102H26.3318C23.5562 44.9017 21.3062 42.5696 21.3062 39.6929C21.3062 36.9549 23.3443 34.7103 25.934 34.5002C26.3624 31.3321 28.9878 28.8942 32.1626 28.8942C34.5179 28.8942 36.5707 30.2359 37.6485 32.2222C38.2944 31.99 38.9881 31.8639 39.7102 31.8639C43.1839 31.8639 45.9999 34.7825 45.9999 38.3828C45.9999 39.4301 45.7617 40.4197 45.3382 41.2965C44.6857 43.3885 42.7909 44.9017 40.5552 44.9017Z" fill="white" fill-opacity="0.5"/>
</g>
<defs>
<filter id="filter0_f_11_1032" x="0.088623" y="6.39816" width="48.6764" height="46.7768" filterUnits="userSpaceOnUse" color-interpolation-filters="sRGB">
<feFlood flood-opacity="0" result="BackgroundImageFix"/>
<feBlend mode="normal" in="SourceGraphic" in2="BackgroundImageFix" result="shape"/>
<feGaussianBlur stdDeviation="10" result="effect1_foregroundBlur_11_1032"/>
</filter>
<filter id="filter1_d_11_1032" x="1.30615" y="0.894226" width="84.6937" height="76.0076" filterUnits="userSpaceOnUse" color-interpolation-filters="sRGB">
<feFlood flood-opacity="0" result="BackgroundImageFix"/>
<feColorMatrix in="SourceAlpha" type="matrix" values="0 0 0 0 0 0 0 0 0 0 0 0 0 0 0 0 0 0 127 0" result="hardAlpha"/>
<feOffset dx="10" dy="2"/>
<feGaussianBlur stdDeviation="15"/>
<feColorMatrix type="matrix" values="0 0 0 0 0.258824 0 0 0 0 0.627451 0 0 0 0 0.941176 0 0 0 0.596 0"/>
<feBlend mode="normal" in2="BackgroundImageFix" result="effect1_dropShadow_11_1032"/>
<feBlend mode="normal" in="SourceGraphic" in2="effect1_dropShadow_11_1032" result="shape"/>
</filter>
<linearGradient id="paint0_linear_11_1032" x1="32.8883" y1="45.7709" x2="29.0911" y2="44.4278" gradientUnits="userSpaceOnUse">
<stop stop-color="#FFD100"/>
<stop offset="1" stop-color="#FFF0AA"/>
</linearGradient>
<linearGradient id="paint1_linear_11_1032" x1="39.9886" y1="46.6576" x2="38.3216" y2="46.0679" gradientUnits="userSpaceOnUse">
<stop stop-color="#FFD100"/>
<stop offset="1" stop-color="#FFF0AA"/>
</linearGradient>
<linearGradient id="paint2_linear_11_1032" x1="25.5223" y1="48.5058" x2="23.8552" y2="47.9162" gradientUnits="userSpaceOnUse">
<stop stop-color="#FFD100"/>
<stop offset="1" stop-color="#FFF0AA"/>
</linearGradient>
<linearGradient id="paint3_linear_11_1032" x1="33.6549" y1="28.8945" x2="41.2778" y2="46.6768" gradientUnits="userSpaceOnUse">
<stop stop-color="white" stop-opacity="0.604"/>
<stop offset="1" stop-color="white" stop-opacity="0.2"/>
</linearGradient>
</defs>
</svg>
